{"accessors" : [{"bufferView" : 0, "byteOffset" : 0, "componentType" : 5123, "count" : 58800, "type" : "SCALAR", "max" : [49125], "min" : [0]}, {"bufferView" : 1, "byteOffset" : 0, "componentType" : 5126, "count" : 49126, "type" : "VEC3", "max" : [34.5, 36.12130355834961, 3.000004768371582], "min" : [-34.500022888183594, -34.50001907348633, -136.99996948242188], "name" : "POSITION"}, {"bufferView" : 0, "byteOffset" : 117600, "componentType" : 5123, "count" : 18288, "type" : "SCALAR", "max" : [15261], "min" : [0]}, {"bufferView" : 2, "byteOffset" : 0, "componentType" : 5126, "count" : 15262, "type" : "VEC3", "max" : [135.49996948242188, 59.59812545776367, 2.500002861022949], "min" : [-1.5, -1.5, 0], "name" : "POSITION"}, {"bufferView" : 0, "byteOffset" : 154176, "componentType" : 5123, "count" : 1764, "type" : "SCALAR", "max" : [1530], "min" : [0]}, {"bufferView" : 3, "byteOffset" : 0, "componentType" : 5126, "count" : 1531, "type" : "VEC3", "max" : [70, 35, 2.5], "min" : [-70, -35, 0], "name" : "POSITION"}, {"bufferView" : 3, "byteOffset" : 12, "componentType" : 5126, "count" : 1531, "type" : "VEC2", "max" : [1, -0], "min" : [0, -1], "name" : "TEXCOORD_0"}], "asset" : {"generator" : "Aspose.3D 22.1", "version" : "2.0"}, "buffers" : [{"uri" : "data:application/octet-stream;base64,", "byteLength" : 1118056}], "bufferViews" : [{"buffer" : 0, "byteOffset" : 0, "byteLength" : 157704, "target" : 34963}, {"buffer" : 0, "byteOffset" : 157708, "byteLength" : 705600, "byteStride" : 12, "target" : 34962}, {"buffer" : 0, "byteOffset" : 863312, "byteLength" : 219456, "byteStride" : 12, "target" : 34962}, {"buffer" : 0, "byteOffset" : 1082772, "byteLength" : 35280, "byteStride" : 20, "target" : 34962}], "images" : [{"uri" : "zeta-tex.jpg"}], "materials" : [{"name" : "", "pbrMetallicRoughness" : {"baseColorFactor" : [0.20784313725490197, 0.20784313725490197, 0.20784313725490197, 1], "metallicFactor" : 0, "roughnessFactor" : 0}, "emissiveFactor" : [0, 0, 0], "alphaMode" : "OPAQUE", "doubleSided" : false}, {"name" : "", "pbrMetallicRoughness" : {"baseColorFactor" : [0.10980392156862745, 0.10980392156862745, 0.10980392156862745, 1], "metallicFactor" : 0, "roughnessFactor" : 0}, "emissiveFactor" : [0, 0, 0], "alphaMode" : "OPAQUE", "doubleSided" : false}, {"name" : "", "pbrMetallicRoughness" : {"baseColorFactor" : [0.7843137254901961, 0.7843137254901961, 0.7843137254901961, 1], "baseColorTexture" : {"index" : 0, "texCoord" : 0}, "metallicFactor" : 0, "roughnessFactor" : 0}, "emissiveFactor" : [0, 0, 0], "alphaMode" : "OPAQUE", "doubleSided" : false}], "meshes" : [{"primitives" : [{"attributes" : {"POSITION" : 1}, "indices" : 0, "material" : 0, "mode" : 4}], "name" : "karkas"}, {"primitives" : [{"attributes" : {"POSITION" : 3}, "indices" : 2, "material" : 1, "mode" : 4}], "name" : "nogi"}, {"primitives" : [{"attributes" : {"POSITION" : 5, "TEXCOORD_0" : 6}, "indices" : 4, "material" : 2, "mode" : 4}], "name" : "stol"}], "nodes" : [{"matrix" : [1.6292068494294654E-07, 0, -1, 0, 1.6292068494294654E-07, 1, 2.6543149595588053E-14, 0, 1, -1.6292068494294654E-07, 1.6292068494294654E-07, 0, 71.437744140625, 35.85480880737305, 1.070507287979126, 1], "mesh" : 0, "name" : "karkas"}, {"matrix" : [-1, 0, 0, 0, 0, 0, 1, 0, 0, 1, 0, 0, 71.437744140625, -0.01200103759765625, -27.978553771972656, 1], "mesh" : 1, "name" : "nogi"}, {"matrix" : [-1, 0, 0, 0, 0, 0, 1, 0, 0, 1, 0, 0, 4.437755584716797, 71.93893432617188, 1.0704994201660156, 1], "mesh" : 2, "name" : "stol"}], "samplers" : [{"magFilter" : 9729, "minFilter" : 9729, "wrapS" : 10497, "wrapT" : 10497}], "scene" : 0, "scenes" : [{"nodes" : [0, 1, 2]}], "textures" : [{"sampler" : 0, "source" : 0}]}