<svg xmlns="http://www.w3.org/2000/svg" fill="none" viewBox="0 0 860 114"><path fill="#fff" fill-rule="evenodd" d="M316.179 56.993c0 9.767-2.266 18.754-6.797 26.96-4.481 8.206-11.177 14.726-20.088 19.559-8.911 4.834-19.761 7.25-32.549 7.25-12.938 0-23.889-2.517-32.85-7.552-8.962-5.034-15.633-11.655-20.013-19.861-4.329-8.207-6.494-16.992-6.494-26.356 0-9.415 2.165-18.2 6.494-26.356 4.33-8.207 10.976-14.802 19.937-19.786 9.012-5.035 19.988-7.552 32.926-7.552 9.667 0 18.276 1.435 25.828 4.304 7.602 2.87 13.845 6.772 18.729 11.706 4.883 4.883 8.584 10.598 11.101 17.143 2.517 6.494 3.776 13.341 3.776 20.54Zm-32.171 0c0-3.927-.579-7.502-1.737-10.724-1.158-3.272-2.92-6.092-5.287-8.458-2.315-2.417-5.16-4.28-8.533-5.589-3.373-1.359-7.275-2.039-11.706-2.039-8.458 0-15.103 2.468-19.937 7.401-4.833 4.934-7.249 11.404-7.249 19.409 0 8.005 2.416 14.5 7.249 19.484 4.884 4.933 11.53 7.4 19.937 7.4 5.79 0 10.724-1.132 14.802-3.398 4.078-2.316 7.174-5.488 9.289-9.515 2.114-4.078 3.172-8.735 3.172-13.971ZM90.802 37.66c0 3.877-.68 7.678-2.039 11.403-1.309 3.675-3.448 7.124-6.419 10.346-2.97 3.172-6.998 5.765-12.083 7.779-5.034 1.963-10.975 2.945-17.822 2.945H31.747v39.27H.18V4.733h52.259c6.847 0 12.788 1.008 17.822 3.021 5.085 2.014 9.113 4.632 12.083 7.854 2.97 3.223 5.11 6.722 6.42 10.497 1.359 3.776 2.038 7.628 2.038 11.555Zm-32.17.15c0-4.983-1.486-8.382-4.456-10.194-2.92-1.863-8.182-2.794-15.784-2.794h-6.645v25.223h6.796c5.236 0 9.264-.327 12.083-.982 2.82-.654 4.859-1.863 6.117-3.625 1.259-1.762 1.888-4.304 1.888-7.627ZM187.071 49.063c1.359-3.725 2.039-7.527 2.039-11.403 0-3.927-.68-7.778-2.039-11.554-1.309-3.776-3.449-7.276-6.419-10.498-2.97-3.222-6.998-5.84-12.083-7.854-5.035-2.013-10.975-3.02-17.823-3.02H98.487v104.669h31.567v-39.27h11.629l21.42 39.27h34.74l-27.374-43.017c4.198-1.885 7.593-4.21 10.183-6.977 2.97-3.222 5.11-6.67 6.419-10.346Zm-34.588-21.447c2.971 1.812 4.456 5.21 4.456 10.195 0 3.323-.629 5.865-1.888 7.627-1.259 1.762-3.298 2.97-6.117 3.625-2.819.655-6.847.982-12.083.982h-6.797V24.822h6.646c7.602 0 12.863.931 15.783 2.794Z" clip-rule="evenodd"/><path fill="#FFC845" d="M320.377 5.777h100.056c-33.333 47.659-50.826 73.962-52.477 78.909h52.48v24.659H316.178l52.48-78.909h-48.281V5.777Zm144.841 83.134c-.235 1.847-7.081 19.978-7.701 20.434h-32.183v-1.41L470.814 5.78h34.285l45.481 103.565h-32.184c-.447-1.915-7.038-19.948-7.701-20.434h-45.477Zm37.783-18.315v-1.41c-7.446-18.368-12.344-30.345-14.694-35.932h-.698l-13.998 37.342h29.39Zm60.177-64.819h28.689l31.489 38.75 31.482-38.75h28.685v103.565h-31.485v-59.18l-27.99 34.524-30.086-34.524v59.18h-30.787l.003-103.565Zm174.93 0 31.488 38.75 30.781-38.75h28.689v103.565h-31.489v-59.18L769.59 84.686l-30.086-34.524v59.18h-30.787V5.78l29.391-.003Zm106.806 24.308a12.536 12.536 0 0 1-4.819-.97 12.586 12.586 0 0 1-4.083-2.751 12.672 12.672 0 0 1-2.725-4.113 12.73 12.73 0 0 1-.952-4.848 12.73 12.73 0 0 1 .952-4.848 12.673 12.673 0 0 1 2.725-4.113 12.585 12.585 0 0 1 4.083-2.75 12.534 12.534 0 0 1 4.819-.971c1.655.001 3.293.33 4.821.97a12.585 12.585 0 0 1 4.084 2.75 12.66 12.66 0 0 1 2.726 4.113c.631 1.538.954 3.186.952 4.85a12.733 12.733 0 0 1-.952 4.848 12.66 12.66 0 0 1-2.726 4.113 12.583 12.583 0 0 1-4.084 2.75 12.54 12.54 0 0 1-4.821.97Zm0-2.82a9.76 9.76 0 0 0 6.926-2.893 9.89 9.89 0 0 0 2.864-6.969 9.913 9.913 0 0 0-.742-3.772 9.854 9.854 0 0 0-2.12-3.199 9.794 9.794 0 0 0-3.178-2.14 9.753 9.753 0 0 0-3.75-.753 9.774 9.774 0 0 0-6.923 2.896 9.877 9.877 0 0 0-2.859 6.968 9.874 9.874 0 0 0 2.861 6.967 9.771 9.771 0 0 0 6.921 2.894Zm-.143-8.648h-1.622v4.422h-2.995V10.517h4.891c1.472 0 2.623.328 3.456.988.828.66 1.243 1.59 1.243 2.795 0 .872-.173 1.594-.522 2.168a3.73 3.73 0 0 1-1.645 1.394l2.594 5.049v.128h-3.207l-2.193-4.422Zm-1.622-2.33h1.893c.571 0 .998-.15 1.285-.452.304-.346.459-.8.431-1.26a1.766 1.766 0 0 0-.434-1.266c-.294-.308-.718-.46-1.279-.46h-1.893l-.003 3.439Z"/></svg>