<svg xmlns="http://www.w3.org/2000/svg" viewBox="0 0 20 20"><path d="M9.994 1.799 4.922 4.465 9.994 7.37l5.115-2.904L9.994 1.8ZM9.473 8.326 4.497 5.482v5.69l4.976 2.845v-5.69ZM16.455 9.906c1.426.7 2.094 1.54 2.094 2.3 0 .732-.615 1.54-1.961 2.234-1.313.677-3.18 1.16-5.322 1.298a.5.5 0 1 0 .064.998c2.24-.145 4.25-.652 5.716-1.407 1.434-.738 2.503-1.803 2.503-3.122 0-1.444-1.276-2.584-2.945-3.335a9.735 9.735 0 0 0-.15-.066v1.1Z"/><path d="m3.547 8.806-.149.066c-1.669.75-2.945 1.891-2.945 3.335 0 .996.617 1.85 1.512 2.512.744.552 1.727 1.01 2.863 1.352l-.273 1.565c-.058.331.28.591.586.45l3.227-1.492a.417.417 0 0 0 .117-.675l-2.53-2.497a.417.417 0 0 0-.704.225l-.25 1.431c-1.004-.313-1.835-.713-2.441-1.162-.767-.568-1.107-1.16-1.107-1.71 0-.76.668-1.6 2.094-2.3v-1.1ZM15.504 5.482l-4.976 2.844v5.69l4.976-2.845v-5.69Z"/></svg>