<svg xmlns="http://www.w3.org/2000/svg" fill="none" viewBox="0 0 24 24"><rect width="24" height="24" fill="#fff" rx="12"/><path fill="#333" stroke="#fff" d="m11.116 4.026.294.402-.294-.402-1.248.91a.5.5 0 0 1-.295.096L8.028 5.03a1.5 1.5 0 0 0-1.43 1.04l-.475 1.47a.5.5 0 0 1-.182.25l-1.252.906a1.5 1.5 0 0 0-.546 1.682l.48 1.468a.5.5 0 0 1 0 .31l-.48 1.468a1.5 1.5 0 0 0 .546 1.682l1.252.905a.5.5 0 0 1 .182.252l.475 1.47a1.5 1.5 0 0 0 1.43 1.039l1.545-.003a.5.5 0 0 1 .295.096l1.248.91a1.5 1.5 0 0 0 1.768 0l1.248-.91a.5.5 0 0 1 .295-.096l1.545.003a1.5 1.5 0 0 0 1.43-1.04l.475-1.47a.5.5 0 0 1 .182-.25l1.252-.906a1.5 1.5 0 0 0 .546-1.682l-.48-1.468a.5.5 0 0 1 0-.31l.48-1.468a1.5 1.5 0 0 0-.546-1.682l-1.252-.905a.5.5 0 0 1-.182-.252l-.475-1.47a1.5 1.5 0 0 0-1.43-1.039l-1.545.003a.5.5 0 0 1-.295-.096l-1.248-.91a1.5 1.5 0 0 0-1.768 0Z"/><path stroke="#fff" stroke-linecap="round" stroke-linejoin="round" d="m8.734 11.695 2.588 3.361c1.48-2.447 2.526-3.628 4.74-5.434"/></svg>