<svg xmlns="http://www.w3.org/2000/svg" fill="none" viewBox="0 0 24 24"><rect width="24" height="24" fill="#fff" rx="12"/><path fill="#333" stroke="#fff" d="M10.735 4a.828.828 0 0 0-.821.647l-.28 1.372a6.773 6.773 0 0 0-1.882 1.033l-1.378-.454a.857.857 0 0 0-.998.357l-1.264 2.09a.776.776 0 0 0 .175 1.005l1.105.917c-.057.337-.095.68-.095 1.033 0 .353.038.696.095 1.033l-1.105.917a.776.776 0 0 0-.175 1.005l1.264 2.09c.2.332.618.482.998.358l1.378-.453a6.772 6.772 0 0 0 1.882 1.031l.28 1.372c.077.376.42.647.821.647h2.53c.401 0 .744-.27.821-.647l.28-1.372a6.77 6.77 0 0 0 1.882-1.033l1.378.454a.856.856 0 0 0 .998-.357l1.264-2.092a.774.774 0 0 0-.176-1.003l-1.104-.917c.057-.337.095-.68.095-1.033 0-.353-.038-.696-.095-1.033l1.104-.917a.776.776 0 0 0 .176-1.005l-1.264-2.09a.857.857 0 0 0-.998-.358l-1.378.453a6.775 6.775 0 0 0-1.882-1.031l-.28-1.372A.828.828 0 0 0 13.265 4h-2.53ZM12 8.8c1.85 0 3.351 1.433 3.351 3.2 0 1.767-1.5 3.2-3.351 3.2-1.85 0-3.351-1.433-3.351-3.2 0-1.767 1.5-3.2 3.351-3.2Z"/></svg>