<svg xmlns="http://www.w3.org/2000/svg" fill="none" viewBox="0 0 20 20"><path fill="#333" d="M10 .8C4.929.8.8 4.927.8 10a9.19 9.19 0 0 0 1.186 4.516l-1.17 4.176a.4.4 0 0 0 .48.496l4.36-1.08A9.206 9.206 0 0 0 10 19.2c5.073 0 9.2-4.127 9.2-9.2 0-5.073-4.127-9.2-9.2-9.2Zm4.629 12.446c-.197.545-1.141 1.042-1.595 1.109-.407.06-.922.085-1.488-.092a13.842 13.842 0 0 1-1.346-.492c-2.37-1.01-3.916-3.366-4.035-3.522-.118-.155-.964-1.264-.964-2.412 0-1.147.61-1.712.827-1.945a.873.873 0 0 1 .63-.292c.157 0 .314.002.452.008.146.007.34-.055.532.4.197.468.67 1.615.728 1.733.059.116.098.253.02.408-.079.156-.118.253-.236.39-.119.136-.248.304-.355.408-.118.117-.241.243-.103.476.137.234.611.998 1.314 1.616.902.794 1.663 1.04 1.899 1.158.236.116.374.097.511-.059.138-.156.59-.681.748-.914.157-.233.315-.195.532-.117.216.078 1.378.642 1.614.758.236.117.393.176.452.273.06.097.06.564-.137 1.108Z"/></svg>