<svg xmlns="http://www.w3.org/2000/svg" fill="none" viewBox="0 0 20 20"><path fill="#333" fill-rule="evenodd" d="M10 19a9 9 0 1 0 0-18 9 9 0 0 0 0 18Zm-4.628-5.754c.197.545 1.14 1.043 1.594 1.11.407.059.923.085 1.488-.093.343-.108.783-.251 1.347-.492 2.211-.943 3.707-3.058 3.992-3.462l.042-.06.003-.002c.126-.166.962-1.269.962-2.41 0-1.074-.535-1.637-.781-1.896l-.046-.049a.873.873 0 0 0-.63-.292 10.1 10.1 0 0 0-.453.009h-.053c-.138 0-.31-.002-.478.4-.067.157-.164.392-.267.638a53.758 53.758 0 0 1-.461 1.094c-.06.117-.098.253-.02.409l.032.065c.06.12.103.208.204.324l.122.145c.081.097.162.194.232.264.119.116.242.242.104.476-.138.233-.612.997-1.314 1.615a6.117 6.117 0 0 1-1.743 1.088c-.065.028-.118.05-.156.07-.236.117-.374.097-.512-.058-.137-.156-.59-.682-.747-.915-.158-.233-.315-.195-.532-.117-.217.078-1.378.642-1.614.759l-.13.063c-.164.078-.275.131-.323.21-.059.096-.059.563.138 1.107Z" clip-rule="evenodd"/></svg>