<svg xmlns="http://www.w3.org/2000/svg" fill="none" viewBox="0 0 20 20"><g clip-path="url(#a)"><path fill="#333" d="M1 9.64c0-4.073 0-6.11 1.265-7.375C3.531 1 5.567 1 9.64 1h.72c4.073 0 6.11 0 7.375 1.265C19 3.531 19 5.567 19 9.64v.72c0 4.073 0 6.11-1.265 7.375C16.469 19 14.433 19 10.36 19h-.72c-4.073 0-6.11 0-7.375-1.265C1 16.469 1 14.433 1 10.36v-.72Z"/><path fill="#fff" d="M10.579 13.967c-4.102 0-6.442-2.812-6.54-7.492h2.055c.068 3.435 1.583 4.89 2.783 5.19v-5.19h1.935v2.962c1.185-.127 2.43-1.477 2.85-2.962h1.934c-.322 1.83-1.672 3.18-2.632 3.735.96.45 2.498 1.627 3.083 3.757h-2.13c-.458-1.425-1.598-2.527-3.105-2.677v2.677h-.233Z"/></g><defs><clipPath id="a"><path fill="#fff" d="M1 1h18v18H1z"/></clipPath></defs></svg>