<svg xmlns="http://www.w3.org/2000/svg" fill="none" viewBox="0 0 20 20"><path fill="#333" d="M10.2 1a9.2 9.2 0 0 1 9.2 9.2 9.2 9.2 0 0 1-9.2 9.2A9.2 9.2 0 0 1 1 10.2 9.2 9.2 0 0 1 10.2 1Zm3.174 12.95c.169-.52.962-5.694 1.06-6.713.03-.309-.068-.514-.26-.606-.23-.111-.573-.055-.97.088-.545.196-7.51 3.153-7.912 3.325-.382.162-.743.338-.743.594 0 .18.107.282.401.387.307.109 1.078.343 1.534.469.439.12.938.016 1.218-.158.297-.185 3.722-2.477 3.968-2.678.246-.2.442.057.241.258-.2.2-2.552 2.483-2.862 2.799-.376.383-.109.781.143.94.289.182 2.363 1.573 2.675 1.796.313.223.63.325.92.325.29 0 .442-.382.587-.826Z"/></svg>