<svg xmlns="http://www.w3.org/2000/svg" fill="none" viewBox="0 0 20 20"><path fill="#333" d="M10.005 1c-3.758 0-4.857.004-5.07.022-.772.064-1.252.185-1.775.445-.403.2-.72.433-1.034.758-.572.593-.918 1.322-1.043 2.19-.061.42-.079.506-.082 2.656-.002.717 0 1.66 0 2.925 0 3.756.004 4.854.022 5.067.062.75.18 1.223.429 1.74A3.793 3.793 0 0 0 3.91 18.81c.371.096.78.149 1.307.173.223.01 2.495.017 4.77.017 2.273 0 4.547-.003 4.764-.014.61-.029.963-.076 1.354-.177a3.77 3.77 0 0 0 2.458-2.012c.245-.504.369-.994.425-1.706.012-.155.017-2.627.017-5.097 0-2.47-.006-4.938-.018-5.093-.057-.723-.18-1.209-.433-1.723a3.568 3.568 0 0 0-.77-1.055c-.596-.57-1.324-.915-2.192-1.04-.42-.061-.505-.08-2.657-.083h-2.93Z"/><path fill="#fff" d="M10.003 3.354c-1.806 0-2.032.008-2.741.04-.708.033-1.19.145-1.613.31-.437.17-.808.396-1.178.766-.37.37-.597.74-.767 1.177-.165.423-.277.906-.309 1.613-.031.71-.04.936-.04 2.741 0 1.805.009 2.031.04 2.74.033.708.145 1.19.31 1.613.17.438.396.808.766 1.178.37.37.74.597 1.177.767.423.164.906.276 1.614.309.709.032.935.04 2.74.04 1.805 0 2.031-.008 2.74-.04.708-.033 1.191-.145 1.614-.309.437-.17.807-.397 1.177-.767s.597-.74.767-1.178c.163-.422.275-.905.309-1.613.031-.709.04-.935.04-2.74 0-1.805-.009-2.031-.04-2.74-.034-.708-.146-1.191-.31-1.614a3.262 3.262 0 0 0-.766-1.177 3.25 3.25 0 0 0-1.177-.767c-.424-.164-.907-.276-1.615-.308-.709-.033-.935-.04-2.74-.04h.002Zm-.597 1.198h.597c1.774 0 1.985.007 2.685.038.648.03 1 .138 1.234.23.31.12.532.264.764.497.233.232.377.454.498.764.09.234.2.586.229 1.234.031.7.038.91.038 2.685 0 1.774-.007 1.984-.038 2.685-.03.648-.138 1-.23 1.233-.12.31-.264.532-.497.764a2.054 2.054 0 0 1-.764.497c-.234.091-.586.2-1.234.23-.7.031-.91.038-2.685.038s-1.986-.007-2.686-.039c-.648-.03-1-.138-1.234-.229a2.06 2.06 0 0 1-.765-.497 2.06 2.06 0 0 1-.497-.764c-.091-.234-.2-.586-.23-1.234-.03-.7-.037-.911-.037-2.686s.006-1.984.038-2.685c.03-.648.138-1 .229-1.234.12-.31.265-.532.497-.764.233-.233.454-.377.765-.498.234-.091.586-.2 1.234-.229.613-.028.85-.036 2.09-.037v.001Zm4.145 1.104a.798.798 0 1 0 0 1.596.798.798 0 0 0 0-1.596Zm-3.548.932a3.414 3.414 0 1 0 0 6.827 3.414 3.414 0 0 0 0-6.827Zm0 1.198a2.216 2.216 0 1 1 0 4.43 2.216 2.216 0 0 1 0-4.43Z"/></svg>