<svg width="24" height="22" viewBox="0 0 24 22" fill="none" xmlns="http://www.w3.org/2000/svg">
<path d="M14.7697 19.9175C17.3845 17.8446 21.1579 14.5994 22.7304 12.004C23.9069 10.0651 24.2898 7.66284 23.778 5.42928C22.6846 0.341439 16.6298 -1.73757 12.8582 1.67199C12.6461 1.86248 12.4506 2.07366 12.2499 2.2905C12.168 2.379 12.0852 2.46843 12 2.55778C11.9148 2.46843 11.832 2.37899 11.7501 2.29049C11.5494 2.07366 11.3539 1.86248 11.1418 1.67199C7.37024 -1.73757 1.31542 0.341439 0.221998 5.42928C-0.289767 7.66284 0.0930208 10.0651 1.26966 12.004C2.8421 14.5994 6.61553 17.8446 9.23035 19.9175C9.95894 20.4952 12 22 12 22C12 22 14.0411 20.4952 14.7697 19.9175Z" fill="#C7D0D6"/>
</svg>
