<svg xmlns="http://www.w3.org/2000/svg" viewBox="0 0 17 20"><path fill="#333" fill-opacity=".6" d="M16.247 4.241c.207.21.384.492.532.848.147.357.221.685.221.982V18.93c0 .297-.103.55-.31.758a1.034 1.034 0 0 1-.753.313H1.063a1.01 1.01 0 0 1-.753-.313A1.024 1.024 0 0 1 0 18.93V1.07C0 .774.103.521.31.313A1.034 1.034 0 0 1 1.063 0h9.917c.295 0 .619.075.973.224.354.149.634.326.84.535l3.454 3.482Zm-4.914-2.723v4.196h4.161c-.073-.215-.154-.368-.243-.458l-3.464-3.492c-.089-.09-.24-.171-.454-.246Zm4.25 17.053V7.143H10.98a1.01 1.01 0 0 1-.753-.313 1.023 1.023 0 0 1-.31-.759V1.43h-8.5V18.57h14.166Zm-5.689-6.617c.244.192.554.4.93.625.43-.052.862-.079 1.295-.08 1.085 0 1.737.183 1.96.548.117.163.124.357.021.58 0 .008-.003.015-.012.023l-.02.022v.01c-.045.284-.308.425-.787.425-.354 0-.777-.075-1.273-.223a8.03 8.03 0 0 1-1.439-.592c-1.63.18-3.076.488-4.337.927-1.13 1.95-2.022 2.925-2.679 2.925a.64.64 0 0 1-.31-.08l-.267-.133a1.2 1.2 0 0 0-.065-.056c-.073-.075-.096-.209-.067-.401.067-.3.273-.638.62-1.022.347-.383.833-.742 1.461-1.077.103-.068.188-.045.255.067.015.014.022.03.022.044.384-.632.777-1.365 1.184-2.199a17.08 17.08 0 0 0 1.151-2.923 9.088 9.088 0 0 1-.337-1.78c-.049-.576-.025-1.05.072-1.423.08-.298.236-.447.464-.447h.243c.17 0 .3.056.389.167.132.157.165.41.1.76a.243.243 0 0 1-.046.09.293.293 0 0 1 .012.088v.335c-.015.915-.066 1.63-.155 2.144.406 1.22.944 2.104 1.615 2.656ZM3.52 16.54c.384-.18.89-.767 1.518-1.765-.354.276-.68.59-.969.938-.27.327-.453.605-.549.827ZM7.924 6.273c-.11.312-.117.803-.021 1.472.007-.051.032-.215.077-.49 0-.022.025-.182.077-.48a.253.253 0 0 1 .045-.09c-.008-.007-.012-.015-.012-.022 0-.008 0-.013-.005-.017-.004-.003-.005-.008-.005-.016a.646.646 0 0 0-.145-.402c0 .007-.003.015-.01.022v.023ZM6.553 13.65a16.105 16.105 0 0 1 3.143-.905 1.647 1.647 0 0 1-.143-.105 1.964 1.964 0 0 1-.178-.15c-.56-.5-1.03-1.155-1.406-1.965a14.98 14.98 0 0 1-.918 2.199c-.22.416-.387.725-.498.925Zm7.15-.179c-.177-.179-.693-.267-1.55-.267.562.207 1.018.312 1.373.312.103 0 .17-.004.199-.012 0-.007-.007-.018-.022-.033Z"/></svg>