<svg xmlns="http://www.w3.org/2000/svg" viewBox="0 0 25 21"><path d="M2.801 9.45H.43a.42.42 0 0 0-.334.682l3.39 4.158c.17.21.496.21.668 0l3.39-4.158a.42.42 0 0 0-.335-.682H4.955C5.48 5.306 9.084 2.1 13.449 2.1c4.728 0 8.56 3.76 8.56 8.4 0 4.64-3.832 8.4-8.56 8.4a8.611 8.611 0 0 1-6.183-2.59 1.085 1.085 0 0 0-1.513-.032 1.036 1.036 0 0 0-.032 1.485A10.772 10.772 0 0 0 13.449 21c5.91 0 10.701-4.701 10.701-10.5S19.36 0 13.45 0C7.9 0 3.337 4.144 2.8 9.45Z"/><path d="M12.38 4.2c.59 0 1.07.47 1.07 1.05v4.725h5.35c.59 0 1.07.47 1.07 1.05 0 .58-.48 1.05-1.07 1.05h-6.42a1.06 1.06 0 0 1-1.071-1.05V5.25c0-.58.48-1.05 1.07-1.05Z"/></svg>