<svg xmlns="http://www.w3.org/2000/svg" viewBox="0 0 20 17"><path fill-rule="evenodd" d="M14.713 4.63a2.476 2.476 0 0 1-2.489 2.464A2.476 2.476 0 0 1 9.736 4.63a2.476 2.476 0 0 1 2.488-2.463 2.476 2.476 0 0 1 2.489 2.463Zm1.666 0a4.12 4.12 0 0 1-1.854 3.44c-.659.437-1.45.69-2.3.69-.852 0-1.643-.253-2.302-.69A4.12 4.12 0 0 1 8.07 4.63c0-2.28 1.86-4.13 4.155-4.13s4.155 1.85 4.155 4.13Zm-4.155 4.82c.87 0 1.712.146 2.498.418a7.573 7.573 0 0 1 4.957 5.657l.035.17a.535.535 0 0 1-.527.638h-1.038a7.686 7.686 0 0 0-.481-1.676 5.939 5.939 0 0 0-5.444-3.541 5.938 5.938 0 0 0-5.448 3.55h6.087l.173 1.667H5.262a.535.535 0 0 1-.527-.638l.034-.17a7.573 7.573 0 0 1 4.957-5.657 7.631 7.631 0 0 1 2.498-.419Z" clip-rule="evenodd"/><path d="M11.655 4.63c0 2.282-1.86 4.13-4.155 4.13S3.345 6.913 3.345 4.63C3.345 2.35 5.205.5 7.5.5s4.155 1.85 4.155 4.13ZM.045 15.525c.71-3.533 3.83-6.076 7.455-6.076 3.624 0 6.745 2.543 7.455 6.076l.034.17a.535.535 0 0 1-.527.638H.537a.535.535 0 0 1-.526-.638l.034-.17Z"/></svg>