<svg xmlns="http://www.w3.org/2000/svg" viewBox="0 0 13 13"><path d="m1.33 12.74-.83-.87L11.67.26l.83.86L1.33 12.74Zm8.68.26c-.55 0-1.05-.14-1.51-.42a3.11 3.11 0 0 1-1.49-2.7 3.25 3.25 0 0 1 1.51-2.7c.46-.28.95-.42 1.49-.42s1.05.14 1.5.42c.46.28.82.66 1.08 1.13.27.47.41 1 .41 1.57a3.11 3.11 0 0 1-1.49 2.7c-.45.28-.96.42-1.5.42Zm0-1.15c.33 0 .65-.1.94-.27a1.96 1.96 0 0 0 .95-1.7 2 2 0 0 0-.95-1.7 1.76 1.76 0 0 0-1.89 0 2.1 2.1 0 0 0-.7.72c-.16.3-.25.62-.25.98a1.95 1.95 0 0 0 1.9 1.97ZM2.99 6.24c-.54 0-1.05-.14-1.5-.42A3.2 3.2 0 0 1 .39 4.7a3.16 3.16 0 0 1 .03-3.14c.27-.47.64-.85 1.1-1.14C1.96.14 2.45 0 2.98 0c.55 0 1.05.14 1.5.42A3.1 3.1 0 0 1 6 3.12a3.11 3.11 0 0 1-1.5 2.7 2.8 2.8 0 0 1-1.5.42Zm0-1.15c.35 0 .66-.1.94-.27a1.95 1.95 0 0 0 .95-1.7 2 2 0 0 0-.95-1.7 1.76 1.76 0 0 0-1.89 0 2.03 2.03 0 0 0-.68 2.69c.18.3.4.53.69.7.28.19.6.28.94.28Z"/></svg>