<svg xmlns="http://www.w3.org/2000/svg" viewBox="0 0 16 16"><path fill="#333" fill-opacity=".6" fill-rule="evenodd" d="M4.948 1.188a1.6 1.6 0 0 0-1.6 1.6V3.4H2A1.6 1.6 0 0 0 .4 5v6.106a1.6 1.6 0 0 0 1.6 1.6h1.348v.61a1.6 1.6 0 0 0 1.6 1.6h6.105a1.6 1.6 0 0 0 1.6-1.6v-.61H14a1.6 1.6 0 0 0 1.6-1.6V4.999A1.6 1.6 0 0 0 14 3.4h-1.347v-.61a1.6 1.6 0 0 0-1.6-1.6H4.948Zm-.4 1.6c0-.22.179-.4.4-.4h6.105a.4.4 0 0 1 .4.4V3.4H4.548v-.61Zm-1.2 6.631v2.086H2a.4.4 0 0 1-.4-.4V4.999c0-.22.18-.4.4-.4h12c.221 0 .4.18.4.4v6.106a.4.4 0 0 1-.4.4h-1.347V9.419a1.6 1.6 0 0 0-1.6-1.6H4.948a1.6 1.6 0 0 0-1.6 1.6Zm1.6-.4a.4.4 0 0 0-.4.4v3.895c0 .221.179.4.4.4h6.105a.4.4 0 0 0 .4-.4V9.42a.4.4 0 0 0-.4-.4H4.948Z" clip-rule="evenodd"/></svg>