<svg xmlns="http://www.w3.org/2000/svg" fill="none" viewBox="0 0 189 25"><path fill="#B7C2CA" fill-rule="evenodd" d="M69.467 12.492c0 2.147-.498 4.122-1.494 5.927-.985 1.803-2.457 3.237-4.416 4.3-1.959 1.062-4.344 1.593-7.155 1.593-2.845 0-5.252-.553-7.222-1.66-1.97-1.107-3.437-2.562-4.4-4.366a12.234 12.234 0 0 1-1.427-5.794c0-2.07.476-4.001 1.428-5.794.951-1.804 2.412-3.254 4.382-4.35 1.982-1.107 4.394-1.66 7.239-1.66 2.125 0 4.017.315 5.678.946 1.67.631 3.043 1.489 4.117 2.574a10.698 10.698 0 0 1 2.44 3.768c.553 1.428.83 2.933.83 4.516Zm-7.072 0c0-.864-.127-1.65-.382-2.358a4.905 4.905 0 0 0-1.162-1.86 5.123 5.123 0 0 0-1.876-1.228c-.742-.298-1.6-.448-2.573-.448-1.86 0-3.32.542-4.383 1.627-1.063 1.085-1.594 2.507-1.594 4.267 0 1.76.531 3.187 1.594 4.283 1.074 1.085 2.534 1.627 4.383 1.627 1.273 0 2.357-.25 3.254-.747a5.089 5.089 0 0 0 2.042-2.092c.465-.897.697-1.92.697-3.071ZM19.922 8.242a7.26 7.26 0 0 1-.448 2.506c-.288.809-.759 1.567-1.412 2.275-.652.697-1.538 1.267-2.656 1.71-1.107.432-2.413.647-3.918.647H6.94v8.633H0V1.003h11.488c1.505 0 2.812.222 3.918.664 1.118.443 2.004 1.019 2.656 1.727.653.708 1.124 1.478 1.412 2.308.299.83.448 1.676.448 2.54Zm-7.072.033c0-1.096-.327-1.843-.98-2.241-.642-.41-1.798-.615-3.47-.615H6.94v5.545h1.494c1.15 0 2.036-.072 2.656-.216.62-.143 1.068-.409 1.345-.796.276-.388.415-.947.415-1.677ZM41.085 10.748a7.262 7.262 0 0 0 .448-2.506c0-.864-.15-1.71-.448-2.54-.288-.83-.758-1.6-1.411-2.308-.653-.708-1.539-1.284-2.656-1.727-1.107-.442-2.413-.664-3.918-.664H21.61v23.01h6.94V15.38h2.556l4.709 8.633h7.637l-6.018-9.456c.923-.415 1.67-.926 2.239-1.534.653-.708 1.123-1.466 1.411-2.274Zm-7.604-4.714c.653.398.98 1.145.98 2.24 0 .731-.138 1.29-.415 1.678-.277.387-.725.653-1.345.796-.62.144-1.505.216-2.656.216H28.55V5.42h1.46c1.672 0 2.829.205 3.47.615Z" clip-rule="evenodd"/><path fill="#333" d="M70.39 1.232h21.995C85.058 11.71 81.212 17.492 80.85 18.58h11.537V24h-22.92L81.005 6.653H70.39v-5.42Zm31.841 18.276c-.052.406-1.557 4.392-1.693 4.492h-7.075v-.31l9.998-22.457h7.537L120.996 24h-7.075c-.098-.421-1.547-4.385-1.693-4.492h-9.997Zm8.306-4.026v-.31a873.965 873.965 0 0 0-3.23-7.9h-.154l-3.077 8.21h6.461Zm13.229-14.25h6.307l6.922 8.519 6.921-8.519h6.306V24H143.3V10.99l-6.153 7.59-6.614-7.59V24h-6.768l.001-22.767Zm38.455 0 6.922 8.519 6.767-8.519h6.307V24h-6.923V10.99l-6.152 7.59-6.614-7.59V24h-6.768V1.233h6.461Zm23.48 5.344a2.758 2.758 0 0 1-1.957-.818 2.802 2.802 0 0 1 .897-4.545 2.748 2.748 0 0 1 3.017.605 2.79 2.79 0 0 1 .809 1.97 2.79 2.79 0 0 1-1.707 2.575c-.335.14-.695.213-1.059.213Zm0-.62a2.142 2.142 0 0 0 1.522-.636 2.166 2.166 0 0 0 .63-1.532 2.182 2.182 0 0 0-.629-1.532 2.16 2.16 0 0 0-1.523-.637 2.148 2.148 0 0 0-1.522.637c-.403.407-.63.958-.629 1.532 0 .574.226 1.125.629 1.531.403.407.951.636 1.522.637Zm-.032-1.901h-.356v.972h-.659V2.274h1.075c.324 0 .577.072.76.217.182.145.273.35.273.615a.91.91 0 0 1-.114.476.821.821 0 0 1-.362.307l.57 1.11v.028h-.705l-.482-.972Zm-.356-.512h.416c.125 0 .219-.033.282-.1a.384.384 0 0 0 .095-.277.388.388 0 0 0-.095-.278c-.065-.068-.158-.101-.282-.101h-.416v.756Z"/></svg>