<svg xmlns="http://www.w3.org/2000/svg" viewBox="0 0 29 18"><path d="M5 11a1 1 0 0 1-1 1H1a1 1 0 0 1 0-2h1V2H1a1 1 0 0 1 0-2h2a1 1 0 0 1 .85.47L8 7.1 12.15.47A1 1 0 0 1 13 0h2a1 1 0 1 1 0 2h-1v8h1a1 1 0 0 1 0 2h-3a1 1 0 0 1 0-2V4.49L8.85 9.53a1 1 0 0 1-1.7 0L4 4.49V10a1 1 0 0 1 1 1Zm23-3h-9a1 1 0 0 0-1 1v2a1 1 0 0 0 1 1h9a1 1 0 0 0 1-1V9a1 1 0 0 0-1-1Zm0 6H7a1 1 0 0 0-1 1v2a1 1 0 0 0 1 1h21a1 1 0 0 0 1-1v-2a1 1 0 0 0-1-1Zm0-12h-9a1 1 0 0 0-1 1v2a1 1 0 0 0 1 1h9a1 1 0 0 0 1-1V3a1 1 0 0 0-1-1Z"/></svg>