<svg xmlns="http://www.w3.org/2000/svg" fill="none" viewBox="0 0 31 28"><path fill="#343330" d="M31 24.5a3.5 3.5 0 1 1-7 0c0-2.946 2.757-5.186 2.875-5.281a1 1 0 0 1 1.25 0C28.242 19.314 31 21.554 31 24.5ZM15.56 14.561a1.5 1.5 0 1 0-2.125-2.117 1.5 1.5 0 0 0 2.125 2.117Zm12.146-.832L14.271.293a1 1 0 0 0-1.414 0L7.781 5.375l5.054 5.053a3.5 3.5 0 1 1-1.414 1.415l-5.054-5.06L.875 12.27a3 3 0 0 0 0 4.243l10.611 10.611a3 3 0 0 0 4.242 0l11.98-11.979a1 1 0 0 0 0-1.417Zm-23-11.436a1 1 0 0 0-1.415 1.415l3.075 3.075 1.414-1.408-3.074-3.082Z"/></svg>