<svg xmlns="http://www.w3.org/2000/svg" fill="none" viewBox="0 0 92 92"><g clip-path="url(#a)"><path fill="#FFF0CA" d="M45.997 91.255c-12.087 0-23.452-4.708-32-13.255C5.45 69.453.743 58.088.743 46c0-12.087 4.708-23.452 13.256-32 8.547-8.547 19.91-13.255 32-13.255 12.089 0 23.452 4.708 32 13.255 8.547 8.548 13.254 19.913 13.254 32 0 12.088-4.707 23.452-13.255 32-8.547 8.548-19.912 13.255-32 13.255v-.001Z"/><path fill="#333" d="M45.997 1.491A44.379 44.379 0 0 1 77.47 14.527a44.34 44.34 0 0 1 9.54 14.149A44.233 44.233 0 0 1 90.505 46c0 6.01-1.176 11.838-3.496 17.325a44.381 44.381 0 0 1-9.54 14.148 44.34 44.34 0 0 1-14.148 9.54 44.233 44.233 0 0 1-17.325 3.496 44.233 44.233 0 0 1-17.325-3.497 44.382 44.382 0 0 1-14.149-9.539 44.34 44.34 0 0 1-9.539-14.148A44.233 44.233 0 0 1 1.487 46a44.38 44.38 0 0 1 13.036-31.473 44.34 44.34 0 0 1 14.149-9.54 44.233 44.233 0 0 1 17.325-3.497Zm0-1.491c-25.406 0-46 20.595-46 46 0 25.406 20.594 46.001 46 46.001s46-20.595 46-46C91.998 20.595 71.402 0 45.998 0Z"/><path fill="#333" fill-opacity=".6" d="M45.997 5.534c5.464 0 10.764 1.07 15.75 3.18a40.34 40.34 0 0 1 12.863 8.672A40.34 40.34 0 0 1 86.463 46c0 5.462-1.07 10.763-3.18 15.75a40.34 40.34 0 0 1-8.673 12.863 40.349 40.349 0 0 1-28.613 11.852 40.201 40.201 0 0 1-15.75-3.18 40.34 40.34 0 0 1-12.863-8.672A40.348 40.348 0 0 1 5.532 46c0-5.463 1.069-10.764 3.179-15.75a40.34 40.34 0 0 1 8.673-12.864A40.34 40.34 0 0 1 45.997 5.534Zm0-1.491C22.824 4.043 4.04 22.828 4.04 46.001s18.785 41.957 41.957 41.957S87.952 69.173 87.952 46 69.17 4.043 45.997 4.043Z"/><path fill="#333" fill-opacity=".6" d="M45.998 22.327a23.517 23.517 0 0 1 16.74 6.934 23.52 23.52 0 0 1 6.934 16.74 23.517 23.517 0 0 1-6.934 16.74c-4.472 4.472-10.416 6.935-16.74 6.935a23.517 23.517 0 0 1-16.74-6.934c-4.471-4.472-6.935-10.416-6.935-16.74a23.517 23.517 0 0 1 6.934-16.74 23.517 23.517 0 0 1 16.74-6.935Zm0-1.491c-13.898 0-25.166 11.266-25.166 25.166s11.266 25.165 25.166 25.165 25.165-11.266 25.165-25.166c0-13.899-11.266-25.165-25.165-25.165Z"/><path fill="#333" d="M38.344 30.262c0 3.118-2.521 3.773-4.637 3.773h-.82v1.879h.82c2.111 0 3.656-.622 4.608-1.85v17h1.79V29.74h-1.76v.522ZM56.943 32.491c-1.391-1.937-3.371-2.96-5.729-2.96-4.773 0-7.858 4.244-7.858 10.812 0 6.567 3.073 10.93 7.828 10.93 4.756 0 7.859-4.29 7.859-10.93 0-3.223-.726-5.939-2.1-7.852Zm-5.759 17.082c-3.614 0-5.95-3.624-5.95-9.23 0-5.607 2.336-9.112 5.95-9.112 3.615 0 5.98 3.576 5.98 9.111 0 5.536-2.347 9.231-5.98 9.231ZM35.902 62.222v-1.27c.248.047.438.041.573-.015a.573.573 0 0 0 .302-.323c.068-.159.126-.371.176-.635.068-.373.128-.803.18-1.288.052-.486.099-1.007.137-1.56.041-.554.078-1.119.11-1.697h5.001v6.792h-1.51v-5.37h-2.157a115.819 115.819 0 0 1-.17 1.937c-.033.345-.07.67-.11.977-.041.308-.082.571-.122.79-.097.491-.234.878-.412 1.163a1.202 1.202 0 0 1-.746.55c-.319.08-.735.065-1.252-.047v-.004ZM47.232 62.41c-.687 0-1.291-.149-1.812-.447a3.16 3.16 0 0 1-1.217-1.238c-.292-.529-.437-1.136-.437-1.825 0-.742.143-1.388.427-1.934a3.122 3.122 0 0 1 1.189-1.273c.507-.302 1.093-.453 1.76-.453.705 0 1.303.165 1.796.494.494.329.86.793 1.098 1.393.238.6.329 1.306.27 2.12h-1.503v-.554c-.004-.738-.134-1.278-.389-1.616-.256-.339-.658-.51-1.208-.51-.62 0-1.081.192-1.383.575-.302.384-.453.945-.453 1.682 0 .687.15 1.22.453 1.597.302.377.74.565 1.322.565.373 0 .694-.083.965-.248.271-.166.48-.406.625-.72l1.496.453a3.05 3.05 0 0 1-1.204 1.428 3.309 3.309 0 0 1-1.795.51v.001Zm-2.34-3.164V58.1h4.673v1.146h-4.673ZM53.211 62.222v-5.445h-2.27V55.43H57v1.347h-2.27v5.445H53.21ZM20.852 35.284l-8.985-5.052 3.193-5.677 1.054.593-2.568 4.568 7.93 4.459-.624 1.11v-.001ZM23.682 29.939l-4.842-9.732 1.255-1.254 9.725 4.855-.937.936-9.041-4.486.283-.283 4.493 9.027-.936.935v.002Zm-.53-2.881-.844-.846 3.79-3.783.844.846-3.79 3.783ZM30.38 23.572l-4.774-9.134 3.608-1.886c.088-.046.196-.099.322-.157.126-.058.252-.106.378-.144.533-.182 1.037-.232 1.512-.145.472.086.899.285 1.276.596.379.312.695.71.949 1.196.252.482.396.968.433 1.457.038.49-.043.955-.24 1.395-.198.44-.522.826-.973 1.158a5.976 5.976 0 0 1-.646.403l-2.48 1.297 1.764 3.375-1.129.59v-.001Zm-1.196-5.037 2.443-1.277c.08-.042.17-.094.27-.157.1-.062.19-.128.271-.198.257-.22.43-.468.52-.744.089-.276.112-.558.07-.845a2.55 2.55 0 0 0-.778-1.49 1.858 1.858 0 0 0-.736-.427 1.604 1.604 0 0 0-.907.006 1.673 1.673 0 0 0-.32.106 4.707 4.707 0 0 0-.28.134l-2.442 1.277 1.89 3.616v-.002ZM36.552 20.223l1.436-10.774 1.743-.336 5.339 9.468-1.3.25-4.98-8.778.393-.076-1.332 9.995-1.3.25h.001Zm1.174-2.683-.227-1.174 5.257-1.014.226 1.174-5.256 1.014ZM45.633 18.623l1.343-10.219 1.263.166-.592 4.506 5.38.707.591-4.506 1.263.165-1.343 10.22-1.263-.166.593-4.514-5.379-.708-.593 4.514-1.263-.166v.002ZM57.133 21.273l3.914-8.212-3.172-1.512.52-1.092 7.496 3.573-.52 1.091-3.173-1.512-3.914 8.213-1.15-.55h-.001ZM66.65 28.181l5.532-5.86-9.44 2.17-.937-.883 7.074-7.497.936.885-5.528 5.856 9.437-2.167.936.884-7.074 7.496-.936-.884ZM68.106 29.732l5.092-.202.256 1.293-4.657.196-.691-1.285v-.002ZM71.1 35.3l3.354-1.804-1.502-2.793-.161-.466c-.25-.775-.215-1.485.103-2.128.317-.642.827-1.152 1.53-1.53.483-.259.969-.413 1.457-.457a2.75 2.75 0 0 1 1.39.222c.44.194.832.516 1.171.968.083.103.16.211.232.33.071.119.13.223.179.31l1.93 3.587-9.078 4.882-.604-1.122-.001.001Zm8.012-4.31-1.305-2.427a5.05 5.05 0 0 0-.156-.269c-.061-.1-.13-.189-.206-.268a1.604 1.604 0 0 0-.747-.513 1.838 1.838 0 0 0-.849-.06 2.55 2.55 0 0 0-1.48.798c-.197.215-.336.46-.415.74-.08.279-.076.581.012.908.028.104.067.209.113.316.047.107.093.201.135.28l1.304 2.428 3.594-1.932ZM23.57 76.112l.12-.195 9.259-4.754-4.473-2.715.628-1.034 6.308 3.83-.127.207-9.226 4.757 4.57 2.775-.627 1.033-6.43-3.904h-.002ZM32.754 81.27l5.868-9.15 1.72.433.824 10.838-1.284-.323-.79-10.063.389.098-5.443 8.49-1.284-.324Zm2.2-1.933.293-1.16 5.191 1.312-.292 1.158-5.191-1.31ZM44.698 83.772l-.995-10.26 1.154-.11 4.668 7.795 3.061-8.544 1.168-.114.995 10.252-1.204.117-.723-7.467-2.759 7.811-.677.066-4.208-7.136.725 7.474-1.204.116h-.001ZM59.17 81.46l-4.865-9.085 1.021-.547 7.309 5.4-.463-9.066 1.035-.555 4.863 9.08-1.066.572-3.542-6.612.46 8.271-.6.32-6.63-4.966 3.545 6.62-1.067.57v-.001Z"/></g><defs><clipPath id="a"><path fill="#fff" d="M0 0h92v92H0z"/></clipPath></defs></svg>