<svg xmlns="http://www.w3.org/2000/svg" viewBox="0 0 60 12"><path d="M.491.322h11.705c-3.9 5.522-5.946 8.57-6.139 9.143h6.14v2.857H0L6.14 3.18H.49V.322zm16.944 9.633c-.027.214-.828 2.315-.9 2.367h-3.766v-.163L18.09.322h4.01l5.321 12h-3.765c-.052-.222-.823-2.311-.9-2.367h-5.32zm4.42-2.123V7.67a434.766 434.766 0 00-1.719-4.163h-.082l-1.637 4.326h3.438zm7.04-7.51h3.356l3.683 4.49 3.684-4.49h3.356v12H39.29V5.465l-3.275 4-3.52-4v6.857h-3.601v-12zm20.464 0l3.683 4.49 3.602-4.49H60v12h-3.684V5.465l-3.274 4-3.52-4v6.857h-3.601v-12h3.438z" fill-rule="nonzero"></path></svg>