<svg xmlns="http://www.w3.org/2000/svg" viewBox="0 0 16 16"><path fill="#333" fill-rule="evenodd" d="M0 12.4c0 .368.298.666.667.666h1.447a2 2 0 0 1 3.772 0h3.447A.667.667 0 0 0 10 12.4v-8a.667.667 0 0 0-.667-.666H.667A.667.667 0 0 0 0 4.399v8Zm4 0a1.333 1.333 0 1 0-.001 2.665A1.333 1.333 0 0 0 4 12.4Zm9.886.666h1.447A.667.667 0 0 0 16 12.4V9.928a.666.666 0 0 0-.105-.36l-1.832-2.861a.667.667 0 0 0-.561-.308h-2.169a.667.667 0 0 0-.666.667v5.176a2 2 0 0 1 3.22.824Zm-.731 0a1.333 1.333 0 1 1-2.31 1.333 1.333 1.333 0 0 1 2.31-1.333Z" clip-rule="evenodd"/></svg>